<svg width="2050" height="2071" viewBox="0 0 2050 2071" fill="none" xmlns="http://www.w3.org/2000/svg">
<rect width="2050" height="2071" fill="black"/>
<path d="M753.316 1228.83H462.831H433.09C389.469 1228.83 350.881 1200.56 337.737 1158.97L337.32 1157.65C326.766 1124.25 334.456 1087.76 357.591 1061.46L462.831 941.834L753.316 1228.83Z" fill="white"/>
<path d="M320.316 780.834H610.801H640.542C684.163 780.834 722.751 809.109 735.894 850.703L736.312 852.023C746.866 885.421 739.176 921.907 716.041 948.205L610.801 1067.83L320.316 780.834Z" fill="white"/>
<path d="M916.795 932.459V919.507C898.291 926.908 881.432 941.917 866.218 964.532C851.004 986.737 842.986 1007.71 842.163 1027.45V1214.33H798.988V905.937H842.163V1004.01C848.742 980.158 861.284 957.748 879.788 936.777C898.291 915.395 919.262 904.292 942.701 903.47H945.168C953.392 903.47 960.176 906.348 965.522 912.105C971.279 917.451 974.157 924.235 974.157 932.459C974.157 940.683 971.279 947.468 965.522 952.813C960.176 958.159 953.392 960.832 945.168 960.832C936.944 960.832 930.159 958.159 924.814 952.813C919.468 947.468 916.795 940.683 916.795 932.459ZM1006.91 1063.84C1006.91 1114.82 1015.75 1152.24 1033.43 1176.09C1051.52 1199.94 1075.17 1211.87 1104.36 1211.87C1145.48 1211.87 1182.08 1205.7 1214.15 1193.36L1216 1197.68C1183.11 1210.43 1145.89 1216.8 1104.36 1216.8C1063.24 1216.8 1029.73 1204.47 1003.83 1179.79C977.921 1155.12 964.968 1117.09 964.968 1065.69C964.968 1014.29 978.537 974.401 1005.68 946.029C1032.82 917.656 1067.36 903.47 1109.3 903.47C1143.02 903.47 1171.39 913.544 1194.42 933.693C1217.44 953.841 1228.96 983.653 1228.96 1023.13C1228.96 1025.18 1228.96 1027.24 1228.96 1029.3H1008.76C1007.53 1040.4 1006.91 1051.91 1006.91 1063.84ZM1187.01 1024.36C1186.6 984.887 1179 955.692 1164.19 936.777C1149.39 917.862 1130.27 908.404 1106.83 908.404C1083.39 908.404 1062.42 918.684 1043.92 939.244C1025.82 959.804 1014.31 988.176 1009.38 1024.36H1187.01ZM1522.4 1214.33C1505.54 1214.33 1492.58 1210.63 1483.54 1203.23C1474.9 1195.83 1470.38 1188.43 1469.97 1181.03L1469.35 1170.54V976.868C1469.35 944.384 1460.92 923.619 1444.06 914.572C1435.43 910.46 1424.74 908.404 1411.99 908.404C1385.67 908.404 1362.03 918.89 1341.06 939.861C1320.09 960.421 1309.6 978.924 1309.6 995.372V1214.33H1266.43V905.937H1309.6V976.252C1316.59 958.57 1329.54 942.122 1348.46 926.908C1367.37 911.283 1388.14 903.47 1410.76 903.47C1433.37 903.47 1451.67 905.731 1465.65 910.255C1480.04 914.367 1490.53 920.329 1497.11 928.142C1507.39 940.889 1512.53 957.337 1512.53 977.485V1170.54C1512.53 1182.47 1514.79 1191.72 1519.31 1198.3C1524.25 1204.47 1529.18 1207.75 1534.11 1208.17L1540.9 1209.4H1560.02V1214.33H1522.4ZM1544.83 910.871V905.937H1557.78V844.258H1600.95V905.937H1695.32V910.871H1600.95V1135.38C1600.95 1162.11 1603.83 1181.44 1609.59 1193.36C1615.76 1205.29 1628.3 1211.25 1647.21 1211.25C1666.54 1211.25 1686.07 1207.34 1705.81 1199.53L1707.66 1204.47C1687.1 1212.28 1663.46 1216.18 1636.73 1216.18C1610.41 1216.18 1590.67 1210.84 1577.52 1200.15C1564.36 1189.05 1557.78 1167.25 1557.78 1134.77V910.871H1544.83Z" fill="white"/>
</svg>
